<svg xmlns="http://www.w3.org/2000/svg" version="1.1" viewBox="-5.0 -10.0 110.0 135.0">
 <path d="m89.918 74.535-23-7.9023c0.20312-0.51172 0.38281-1.0273 0.54297-1.5508 2.4531-0.27734 6.3633 0.85938 10.785-0.41406 1.9688-0.57031 3.3281-1.3477 4.2734-2.4453 1.3398-1.5625 1.5977-3.7266 0.62891-5.2617-0.32422-0.51563-0.73828-0.87891-1.1016-1.2031-0.70312-0.625-0.80469-0.76562-0.61719-1.3164 0.70312-2.0781 5.0234-2.5898 4.3672-7.4648 1.3008-0.29687 2.0469-1.2891 2.6406-2.4727 1.1445-2.2812 2.0703-4.4648 0.9375-6.7266-1.0312-1.9805-3.2422-3.3672-5.4023-4 1.3125-4.668 1.3359-7.4766 1.5273-8.918 0.40625-3.1172-0.015625-4.668-3.5977-4.9648-3.8555-0.33594-7.8398 0.11719-11.562 1.293-2.6367-1.9609-5.6641-3.418-8.8164-4.1914-1.7227-0.41797-3.4883-0.64844-5.2461-0.73047-2.3477-5.4961-6.9648-9.1484-8.6797-9.3164-0.12891-0.039063-0.26953-0.054688-0.41406-0.039063-0.0625 0.007813-0.11328 0.039063-0.17188 0.058594-0.87891 0.13281-1.7773 0.74219-2.6797 1.8398-1.8125 2.1953-3.2734 4.4297-4.3945 6.6562-1.1523-0.52734-2.332-0.71484-3.7227-0.30469-2.7734 0.80078-5.2031 3.918-5.6289 5.9062-0.10547 0.5625-0.074219 1.1016 0.0625 1.5859-1.5039 0.59766-1.8438 0.76953-3.1367 1.9453-1.8125 1.6484-2.4258 3.8125-1.75 6.3242 0.63672 2.3594 0.82422 3.4492-0.99609 5.1016-1.9688-1.1328-4.9648-1.8867-6.9336-0.82031-1.2188 0.66016-1.8945 1.9727-1.6484 3.1992 0.25 1.2344 1.4102 2.1914 2.8242 2.3281 1.1641 0.10938 2.25-0.3125 3.0703-0.69531 0.80078-0.375 1.8164-0.90625 2.7891-1.582 1.7695 1.3906 3.0312 3.4531 3.2812 5.6875 0.22656 2.0312-0.21484 4.6016 1.2109 6.6172-0.13281 0.078126-0.26562 0.15234-0.39844 0.23828-1.2266-0.28516-2.457-0.46875-3.6445-0.50391-0.91797-0.039063-2.2266 0.023437-3.3008 0.71875l-11.297-3.8867c-0.51562-0.17578-1.0781 0.097656-1.2539 0.61328-0.17578 0.51562 0.097656 1.0781 0.61328 1.2539l10.625 3.6562c-0.12891 0.36719-0.17969 0.72266-0.16797 1.0664-1.8164 0.45313-2.957 1.8477-3.1289 3.2969-0.027344 0.24609-0.007812 0.49219 0.019531 0.74219-1.4844-1.1328-3.418-1.5195-4.9648-0.46875-2.7305 1.8555-3.2031 7.418-3.0039 9.8164 0.15234 1.8789 0.76562 4.4258 2.8438 5.8906 1.9883 1.375 4.5742 1.1211 4.4414 1.1094 1.0508-0.10938 1.1406-0.035156 3.375-0.60156 0.66797-0.16797 1.3164-0.33203 1.9531-0.42969-2.918 8.1797 0.097657 15.285 5.2383 18.18 7.1992 4.0547 15.895-0.59766 22.836-0.99219 2.8125-0.16016 6.0352 0.11719 8.3867-1.8477l7.3398 3.3633c0.38281 0.17188 0.81641 0.15625 1.1719-0.050781 1.8984-1.0664 1.4258-0.81641 13.684-7.7617 0.0625-0.035156 2.8789-1.6367 2.9336-1.6836 0.67188-0.60547 0.84375-1.8711 0.80859-2.957 0.64844-1.2266 0.058594-2.6914-1.1289-3.1641l-9.6523-4.0312c-0.63281-0.28125-1.3516-0.25-1.9766 0.085937l-16.488 8.9062c-0.69531 0.375-1.1211 1-1.1719 1.8594-0.03125 0.14453-0.035156 0.29688-0.015625 0.44141 0.22266 1.25 0.84375 3.3281 2.0938 3.8945l0.28125 0.12891c-1.9531 0.97656-4.3633 0.63281-7.4414 0.94922-0.089844-0.11328-0.19922-0.21484-0.34375-0.28125-2.8164-1.3398-4.5469-4.8047-4.2617-8.2734 1.4023-0.58594 2.7695-1.2422 4.0859-1.9766 1.1641-0.49219 2.3945-0.85156 4.7812-2.3867 0.35156 0.61719 1.0039 1.207 1.8242 1.4922 3.293 1.1719 6.3867-2.3516 8.6211-5.0352 0.95312-1.1523 1.7695-2.4219 2.4141-3.6836 24.676 8.457 23.184 8.0156 23.5 8.0156 0.41016 0 0.79297-0.25781 0.93359-0.66797 0.18359-0.51953-0.089844-1.082-0.60547-1.2578zm-68.668-36.285c-0.62891 0.29297-1.3672 0.58594-2.0508 0.51953-0.52734-0.050781-1-0.38281-1.0742-0.75391-0.074219-0.35547 0.21875-0.83594 0.65234-1.0703 1.0938-0.59375 3.0781-0.11328 4.2148 0.38281-0.52734 0.31641-1.1094 0.62891-1.7422 0.92188zm34.805 44.914c0.035156-0.13281-0.50781 0.24219 16.605-9.0273 0.23438-0.125-0.28125-0.19141 9.9414 4.0352 0.19922 0.082031 0.24609 0.40625 0.011719 0.54297-17.465 9.8594-16.414 9.4453-16.68 9.3281l-9.7383-4.4609c-0.17578-0.078125-0.1875-0.26562-0.14062-0.41797zm7.6562-14.48c-1.1914 1.9727-3.4531 4.5234-4.8125 5.5859-0.73438 0.57422-1.4648 1.0625-2.3906 1.125-1.0391 0.0625-1.6953-0.61328-1.6875-1.1758 0.007813-0.72656-0.80078-1.2812-1.4961-0.86719-0.69922 0.41406-1.7773 0.16406-2.2188-0.51562-0.44141-0.67969-0.23828-1.7695 0.42578-2.2383 0.26953-0.19141 0.41797-0.5 0.41406-0.82031 3.1055-1.7266 6.5859-2.6445 9.6523-3.3125 1.1094-0.24219 2.2305-0.58984 3.6172-0.94531-0.066406 0.18359-0.12109 0.36719-0.19531 0.54688-0.13281 0.33594-0.73047 1.6602-1.3086 2.6172zm-24.09 10.945c-5.2695 1.5664-7.8945-0.91016-7.6016-5.0117v-0.011719c0.11719-1.6953 0.71875-3.3125 1.3086-4.8984 0.63672-1.707 1.4922-2.8438 2.4102-3.1992 1.082-0.42187 3.0117 0.32031 3.7773 2.4297 0.33594 0.92578 0.42969 2.0273 0.26562 3.1836-0.074219 0.53906 0.30078 1.0391 0.83984 1.1133 0.53516 0.078125 1.0391-0.30078 1.1133-0.83984 0.20703-1.4766 0.082031-2.9062-0.36719-4.1328-1.4961-4.1133-7.2383-6.3711-9.8906 0.75781-0.47266 1.2695-0.98828 2.6914-1.25 4.1602-2.3477-0.91016-3.5898-1.4375-5.2109-1.7773 1.6094-3.1758 4.6094-6.8789 7.125-9.1719 1.3164-1.2031 2.8125-2.5625 3.293-4.3633 0.52734-1.9648-0.042969-4.1836-1.4531-5.6523-0.27734-0.28906-0.57422-0.53125-0.87109-0.76562 1.9414-0.37891 3.8398-0.17578 5.6562 0.56641 0.50391 0.20703 1.082-0.035156 1.2852-0.53906 0.20703-0.50391-0.035156-1.082-0.53906-1.2852-0.52734-0.21484-1.082-0.38281-1.6484-0.52344 0.55859-0.27344 1.1133-0.51953 1.6641-0.73047 0.30469 0.18359 0.60547 0.36719 0.91797 0.54297 3.75 2.1016 7.7852 3.7031 11.992 4.7539 0.082031 0.019531 0.16016 0.03125 0.23828 0.03125 0.44141 0 0.84375-0.30078 0.95703-0.74609 0.13281-0.52734-0.19141-1.0625-0.71875-1.1953-4.0391-1.0078-7.9102-2.543-11.508-4.5625-0.42969-0.24219-0.84766-0.48047-1.2695-0.74609h-0.003907c-0.003906 0-0.003906-0.003906-0.007812-0.003906-4.4492-2.7578-6.7773-5.9297-7.1172-9.6953-0.29297-3.3867 1.2266-6.2422 3.6055-9.4961 2.0703-2.8711 4.8359-5.3398 7.9922-7.1406 3.3008-1.8789 7.6953-2.7188 12.133-2.4141-1.9258 2.3047-3.2969 5.0781-3.9336 8.0156 2.5-2.6289 5.5117-4.7695 8.8164-6.2617-2.4648 2.6445-4.3164 5.8555-5.375 9.3125 2.5664-2.6016 5.5078-4.8359 8.6992-6.6133-0.92578 1.0391-1.6211 2.2852-2.0156 3.6211 1.7148-1.6523 3.8086-2.8906 6.0625-3.668 7.0977 5.1797 9.7266 12.809 8.1484 21.246-0.44531 2.7188-1.2344 5.5234-3.9492 7.5977-3.1445 2.3828-7.5547 3.1133-11.531 2.7109-0.53125-0.046874-1.0273 0.34375-1.0781 0.88672-0.054687 0.54297 0.34375 1.0273 0.88672 1.0781 1.9141 0.1875 3.3008 0.12891 4.6953-0.027344 0.058594 1.4023 0.54297 3.6484-0.29297 7.2031-1.8203 0.375-3.2188 0.86719-4.6992 1.1914-3.4766 0.75781-7.4688 1.8359-11 3.9961-0.26953-0.24219-0.44531-0.58984-0.46094-0.91797-0.11719-2.4531 3.9141-3.1406 6.0586-4.4297 1.5625-0.94141 3.5547-2.582 4.1953-5.0625 0.13672-0.52734-0.18359-1.0664-0.71094-1.2031-0.52344-0.13672-1.0664 0.18359-1.2031 0.71094-0.36719 1.4297-1.5391 2.8008-3.3008 3.8633-2.0391 1.2266-7.207 2.125-7.0117 6.2148 0.03125 0.69922 0.32422 1.3906 0.78906 1.9453-3.1602 2.4023-5.2891 5.5898-5.9609 8.957-0.96484 0.34766-1.9453 0.69922-2.9453 0.99609zm44.012-55.738c-0.36328 3.4805-0.48828 5.6797-1.5898 9.5312-0.027344 0-0.65625-0.007813-0.70703-0.003906-0.64844 0.011719-1.2031 0.0625-2.3945 0.33984-0.11719-0.47656-0.49609-1.7148-0.87891-2.6875 0.55078-0.60547 1.8477-3.4688 5.5703-7.1797zm-4.0703 29.914c-0.83203 2.4531 1.3086 3.2422 1.918 4.2031 0.5625 0.89453 0.18359 2.1719-0.45703 2.9219-0.68359 0.79297-1.7383 1.3789-3.3203 1.8359-3.7578 1.0859-7.1055 0.18359-9.7461 0.3125 0.71484-3.6406 0.26562-5.3906 0.17969-7.25 2.4062-0.50781 4.5078-1.4375 6.2617-2.7656 3.1992-2.4414 4.1641-5.7188 4.6602-8.6211 0.70312-0.92578 1.3516-1.9531 1.9492-3.0508 0.16406 0.015625 0.32031 0.042969 0.48438 0.050781 0.46875 0.03125 0.95703 0.0625 1.25 0.19141 0.35156 0.14844 0.46094 0.19531 0.17578 1.4766-0.29688 1.3398-0.42578 2.6836 0.79688 3.5117 0.98047 4.4023-3.0469 3.9258-4.1523 7.1836zm8.3359-14.273c0.17969 1.2539-0.62891 2.8945-1.2227 4.0898-0.25781 0.51172-0.58203 1.0703-1.0469 1.3359-0.14844 0.085938-0.32422 0.12891-0.48438 0.12891-0.11719-0.089844-0.25-0.15625-0.39453-0.18359-0.44922-0.82812 1.5664-3.8867-1.2383-5.0742-1.2969-0.55469-3.043-0.14062-3.4883-0.76172-0.19141-0.27344-0.35938-0.74219-0.46094-1.2852-0.18359-2.3711-0.33984-2.1172 0.67578-2.2734 0.23828-0.023437 0.96094-0.25391 2.3516-0.03125 2.1133 0.36328 5.0312 1.9727 5.3086 4.0547zm-5.1758-17.52c-2.2461 2.1641-3.9688 4.2969-5.6328 6.957-0.70312-1.3359-1.6406-2.6875-2.3828-3.6055-0.8125-1.0078-2.1172-2.3281-2.4961-2.6758 4.4922-1.1836 9.1172-1.0312 10.512-0.67578zm-28.633-5.7656c-1.1992 0.039062-2.375 0.16797-3.5234 0.36328-0.87891-2.2891-1.5391-4.6523-1.9727-7.0547 2.0898 1.5312 4.1172 3.8555 5.4961 6.6914zm-7.5312-6.9102c0.4375 2.6172 1.125 5.1914 2.0586 7.6836-1.4375 0.36328-2.7891 0.85547-4.0391 1.4648-0.0625-0.054687-0.16406-0.16406-0.12891-0.085937-0.30469-0.64844-2.1602-1.6211-2.7812-1.9844 1.6445-3.2734 4.0898-6.3867 4.8906-7.0781zm-13.473 10.883c1.1992-1.957 3.4648-3.8945 5.6289-3.1289 0.67969 0.22266 3.4297 1.8438 3.9844 2.293-3.3828 2.4023-3.2734 2.3203-3.4727 2.5234-0.53516-0.35156-1.0742-0.86719-1.6328-1.043-1.2266-0.37109-2.5664-0.097656-3.5078 0.72266-0.4375 0.38672-0.80078 0.91406-1.0664 0.98047-0.10156 0.019532-0.28516-0.066406-0.39062-0.22656-0.39453-0.59375 0.089844-1.5039 0.45703-2.1211zm-6.6758 16.969c4.4805-4.4453-1.3789-7.668 2.4297-11.125 1.125-1.0195 1.1953-1.0391 2.75-1.6562 0.10156-0.039062 0.18359-0.10547 0.26172-0.17188 0.35547 0.19922 0.74609 0.30859 1.1367 0.30859 1.25 0 1.875-1.0117 2.3984-1.4766 0.41797-0.36328 1.0586-0.48828 1.5938-0.32812 0.60547 0.26953 0.4375 0.33984 0.34375 1.1797-0.82812 0.86719-1.6133 1.7695-2.3047 2.7266-2.125 2.9062-4.3633 6.3789-3.9766 10.828 0.35547 3.9375 2.4766 7.2734 6.4688 10.148-0.90625 0.41797-2.0469 1.0234-3.0664 1.6641-0.58203 0.023438-0.53906 0.050782-0.78125 0.074219-1.0391 0.11328-1.4766 0.21094-2.4336 0.54297-0.074219-0.082032-0.17188-0.15625-0.23828-0.24609-1.0312-1.4141-0.64844-3.625-0.88672-5.7422-0.28125-2.6016-1.6914-5.0195-3.6953-6.7266zm-4.5742 18.543c0.83203 0 1.2891-0.96875 0.76562-1.6094-0.24219-0.30078 0.027344-0.94531 0.39844-1.2148 0.46875-0.34766 1.168-0.48438 2.2539-0.44141 0.59375 0.019531 1.1992 0.074218 1.8086 0.16016-1.3203 1.5352-2.2305 3.2188-2.4609 5.2656-0.33984-0.066406-0.74219-0.16406-1.2227-0.1875-1.3906-0.050781-2.4922 0.16797-3.6641 0.92578-1.0078-1.4883 0.30469-2.8984 2.1211-2.8984zm-10.41 11.406c-0.18359-2.2305 0.37891-6.8242 2.1484-8.0234 0.26953-0.17969 0.67578-0.36719 1.332-0.22656 0.011719 0.003906 0.019531 0.003906 0.03125 0.003906 1.3047 0.30859 2.0977 1.2578 2.7188 2.4414 0.023438 0.13281 0.65625 1.5703-0.011719 3.3438-0.19141 0.50781 0.066407 1.0781 0.57422 1.2695 0.50781 0.19141 1.0781-0.0625 1.2695-0.57422 0.48828-1.293 0.53125-2.7422 0.18359-4.082 1.1094-1.3164 2.1953-1.6641 3.6133-1.6133 0.97266 0.046875 3.0938 1.0508 3.2422-1.2109l0.011718-0.17969c0.19531-2.3203 1.8008-4.8281 4.293-6.0742 0.61719 0.46875 1.2539 0.87891 1.7227 1.3672 0.94141 0.98047 1.3203 2.4609 0.96875 3.7734-0.48438 1.7969-2.793 3.2969-4.2461 4.8945-2.5625 2.8203-4.75 5.5273-6.3555 8.9531-2.1914 0.078125-4.2891 1.043-6.2695 1.125-3.4141 0.16406-4.9531-1.793-5.2266-5.1875zm34.695 21.867c-5.5469 1.082-12.496 3.7305-17.844 0.72266-2.9297-1.6484-4.9688-5.0234-5.3242-8.8086-0.26172-2.7578 0.33203-5.3398 1.168-7.5 1.9961 0.77344-0.60547-0.67969 5.9023 1.8008 0 1.3203 0.26953 2.5117 0.80469 3.5547 1.7734 3.4609 5.6016 3.8633 9.3555 2.7461 0.73047-0.21484 1.4531-0.45312 2.168-0.70703 0 3.25 1.4258 6.3125 3.7695 8.1914zm1.5156-12.75c-0.27734 0.14062-0.93359 0.54688-2.7617 1.3867 0.72266-2.1055 2.1211-4.0938 4.0391-5.75-0.03125 1.293 0.51563 2.375 1.6055 3.0586-1.8867 1.0039-2.6562 1.1836-2.8828 1.3047z"/>
 <path d="m52.516 35.672c-0.82812-0.47266-1.7617-0.76172-2.7109-0.82812-0.39063-0.027344-0.82031-0.007812-1.125 0.23828-0.36328 0.29688-0.4375 0.84375-0.29688 1.293 0.14063 0.45703 0.42969 0.86719 0.78516 1.2109l-0.9375 2.2656c-0.49219-0.27344-1.043-0.4375-1.6133-0.45312-1.0469-0.042969-2.082 0.42578-2.7695 1.2227-0.35547 0.41406-0.30859 1.0352 0.10547 1.3906s1.0352 0.30859 1.3906-0.10547c0.29297-0.34375 0.76172-0.53125 1.2148-0.53516 0.45312 0.011718 0.90625 0.24609 1.1797 0.60547 0.30859 0.40234 0.86719 0.50781 1.3008 0.24219 0.4375-0.26953 1.1758-0.10156 1.5781 0.35938 0.42969 0.49219 0.58594 1.2969 0.40625 2.0977-0.12109 0.53125 0.21484 1.0586 0.74609 1.1797 0.074219 0.015625 0.14453 0.023437 0.21484 0.023437 0.45312 0 0.85938-0.3125 0.96094-0.76953 0.32031-1.4219 0.003907-2.8516-0.84375-3.8281-0.5-0.57422-1.1797-0.91797-1.8906-1.0664l0.71875-1.7344c0.19141 0.035156 0.38281 0.070312 0.57422 0.0625 0.53125-0.015625 1.0625-0.20703 1.4531-0.56641 0.37109-0.34375 0.60547-0.88281 0.45703-1.3672-0.125-0.42188-0.51172-0.71484-0.89844-0.9375z"/>
 <path d="m44.586 31.793c1.332 0.55078 2.8555-0.078125 3.4102-1.4102 0.55078-1.332-0.078125-2.8555-1.4102-3.4102-1.332-0.55078-2.8555 0.078125-3.4102 1.4102-0.55078 1.332 0.082031 2.8555 1.4102 3.4102z"/>
 <path d="m58.223 36.141c1.3398 0.55469 2.8789-0.082031 3.4336-1.4219s-0.082031-2.8789-1.4219-3.4336c-1.3398-0.55469-2.8789 0.082032-3.4336 1.4219-0.55469 1.3398 0.082031 2.875 1.4219 3.4336z"/>
 <path d="m64.746 85.32c1.1367 0 2.0547-0.57422 2.0547-1.2812 0-0.70703-0.92188-1.2812-2.0547-1.2812-1.1367 0-2.0547 0.57422-2.0547 1.2812-0.003906 0.70703 0.91797 1.2812 2.0547 1.2812z"/>
</svg>